<svg width="17" height="19" viewBox="0 0 17 19" fill="none" xmlns="http://www.w3.org/2000/svg">
<path d="M5.25418 0.0190358C6.32874 -0.116549 7.23176 0.489735 7.65929 1.27776L8.7109 3.21681C9.29432 4.29283 8.95907 5.5554 8.07482 6.34968C7.5524 6.81845 7.02738 7.35406 6.7229 7.82668C6.70273 7.86037 6.69643 7.89964 6.70517 7.93726C6.98671 9.34407 8.0206 10.7341 8.94291 11.7307C8.9893 11.7783 9.04984 11.8121 9.11697 11.8281C9.1841 11.8441 9.25485 11.8415 9.32039 11.8207L11.3929 11.2235C11.9511 11.0626 12.5506 11.0708 13.1034 11.247C13.6563 11.4231 14.1334 11.758 14.4648 12.2024L15.9648 14.2141C16.3715 14.7602 16.5774 15.5007 16.2656 16.2127C15.9872 16.8488 15.4486 17.7662 14.469 18.3763C13.4523 19.009 12.0597 19.2494 10.2375 18.6734C8.20152 18.0292 6.27816 16.4137 4.68328 14.3477C3.079 12.2688 1.75836 9.67198 0.957528 6.96413C0.201012 4.40726 0.657737 2.68601 1.73281 1.57778C2.76983 0.508486 4.25575 0.145485 5.25418 0.0190358ZM6.49349 1.81529C6.25522 1.37632 5.8303 1.15948 5.43145 1.20997C4.54459 1.32247 3.43406 1.62682 2.70466 2.37926C2.01331 3.09228 1.53469 4.34812 2.21456 6.64777C2.97838 9.22868 4.23594 11.6952 5.74532 13.6506C7.26408 15.6185 8.98984 17.008 10.6603 17.5364C12.1489 18.0071 13.1056 17.7743 13.7396 17.3801C14.4101 16.9623 14.8225 16.2983 15.0571 15.7627C15.1645 15.5175 15.1181 15.2002 14.8908 14.8953L13.3908 12.8837C13.2172 12.6509 12.9673 12.4755 12.6778 12.3831C12.3882 12.2908 12.0742 12.2865 11.7818 12.3707L9.70934 12.9678C9.08994 13.1462 8.39234 12.9871 7.95178 12.5111C6.99193 11.474 5.76878 9.88353 5.42311 8.15506C5.35703 7.83113 5.42077 7.49608 5.60246 7.21222C5.99766 6.59969 6.62331 5.97514 7.16502 5.48857C7.69422 5.01354 7.84438 4.30677 7.54511 3.75434L6.49349 1.81529Z" fill="black"/>
</svg>
